# xmcd CD database file
#
# Track frame offsets:
#	150
#	20501
#	39245
#	55171
#	75865
#	99549
#	122765
#	142799
#	160163
#	182757
#	203409
#	222808
#
# Disc length: 3309 seconds
#
# Revision: 2
# Processed by: cddbd v1.4b42PL1 Copyright (c) Steve Scherf et al.
# Submitted via: Feurio! 1.62 - http://www.feurio.com
#
DISCID=8c0ceb0c
DTITLE=Celentano A. - Io non so parlar d'amore
DYEAR=1900
DGENRE=blues
TTITLE0=Gelosia
TTITLE1=L'emozione non ha voce
TTITLE2=L'arcobaleno
TTITLE3=Una rosa pericolosa
TTITLE4=Qual'e' la direzione
TTITLE5=Angel
TTITLE6=L'uomo di cartone
TTITLE7=Le pesche d'inverno
TTITLE8=Senza amore
TTITLE9=Il sospetto
TTITLE10=Mi domando
TTITLE11=Sarai uno straccio
EXTD=
EXTT0=
EXTT1=
EXTT2=
EXTT3=
EXTT4=
EXTT5=
EXTT6=
EXTT7=
EXTT8=
EXTT9=
EXTT10=
EXTT11=
PLAYORDER=
